<svg xmlns="http://www.w3.org/2000/svg" width="1400" height="620" viewBox="0 0 1400 620" role="img" aria-labelledby="title desc">
  <title id="title">Taniti island landscape</title>
  <desc id="desc">A stylized Taniti coastline with beach, rainforest, volcano, and ocean.</desc>
  <defs>
    <linearGradient id="sky" x1="0" x2="0" y1="0" y2="1">
      <stop offset="0" stop-color="#83c9d8"/>
      <stop offset="1" stop-color="#dff5ef"/>
    </linearGradient>
    <linearGradient id="water" x1="0" x2="1" y1="0" y2="1">
      <stop offset="0" stop-color="#0f86a4"/>
      <stop offset="1" stop-color="#88d7d3"/>
    </linearGradient>
    <linearGradient id="sand" x1="0" x2="1">
      <stop offset="0" stop-color="#f8df9d"/>
      <stop offset="1" stop-color="#e7bb68"/>
    </linearGradient>
  </defs>
  <rect width="1400" height="620" fill="url(#sky)"/>
  <circle cx="1160" cy="118" r="54" fill="#f8df9d"/>
  <path d="M0 360 C190 300 320 344 502 308 C728 263 920 268 1400 318 L1400 620 L0 620 Z" fill="url(#water)"/>
  <path d="M0 438 C220 392 370 438 575 398 C800 355 1044 378 1400 432 L1400 620 L0 620 Z" fill="#bce7e4" opacity=".72"/>
  <path d="M245 461 C308 294 493 216 716 210 C928 204 1089 300 1182 448 C1046 520 815 550 610 535 C438 522 306 500 245 461 Z" fill="url(#sand)"/>
  <path d="M330 430 C397 281 535 238 700 243 C846 247 990 309 1076 434 C902 471 704 502 524 489 C425 482 363 464 330 430 Z" fill="#68b86e"/>
  <path d="M572 492 C575 420 632 363 710 360 C796 357 861 411 864 489 C767 506 661 509 572 492 Z" fill="#2f7a4d"/>
  <path d="M620 252 L731 92 L854 257 Z" fill="#806a55"/>
  <path d="M674 162 L731 92 L790 164 C753 151 714 151 674 162 Z" fill="#e7ece5"/>
  <path d="M497 343 C578 308 688 301 770 333" fill="none" stroke="#1f6f47" stroke-width="16" stroke-linecap="round" opacity=".55"/>
  <path d="M907 363 C972 380 1024 410 1066 454" fill="none" stroke="#d76f4f" stroke-width="14" stroke-linecap="round" opacity=".7"/>
  <path d="M236 459 C420 540 890 575 1181 449" fill="none" stroke="#fff6d6" stroke-width="18" stroke-linecap="round" opacity=".78"/>
  <path d="M0 542 C232 504 433 540 638 514 C895 481 1118 505 1400 560 L1400 620 L0 620 Z" fill="#eaf8f5" opacity=".7"/>
</svg>
